<svg width="48" height="48" viewBox="0 0 48 48" fill="none" xmlns="http://www.w3.org/2000/svg">
<path d="M25.2415 42.2313L27.3953 34.1313L35.7585 30.7687L33.1481 39.8893L25.2415 42.2313Z" fill="#7FCE00"/>
<path d="M25.2415 42.2313L27.3953 34.1313L35.7585 30.7687L33.1481 39.8893L25.2415 42.2313Z" fill="#7FCE00"/>
<path d="M25.2415 42.2313L27.3953 34.1313L35.7585 30.7687L33.1481 39.8893L25.2415 42.2313Z" fill="#7FCE00"/>
<path d="M11.7722 30.9241L19.7722 33.4241L22.7722 41.9241L13.7722 38.9241L11.7722 30.9241Z" fill="#7FCE00"/>
<path d="M11.7722 30.9241L19.7722 33.4241L22.7722 41.9241L13.7722 38.9241L11.7722 30.9241Z" fill="#7FCE00"/>
<path d="M11.7722 30.9241L19.7722 33.4241L22.7722 41.9241L13.7722 38.9241L11.7722 30.9241Z" fill="#7FCE00"/>
<path d="M13 10L19 9.5L24 7.5L29 10H33.5L31.5 23H17.5L13 10Z" fill="#FF87BF"/>
<path d="M22.4152 40.9348C21.4964 38.2782 20.3604 36.2574 19.0073 34.8722C17.6542 33.4871 15.5674 32.3155 12.7468 31.3576C12.9199 33.0054 13.2677 34.4496 13.7902 35.6902C14.3127 36.9308 14.9764 37.9217 15.7815 38.663C16.3562 39.15 16.8939 39.5219 17.3946 39.7788C17.8953 40.0357 18.4091 40.2422 18.9359 40.3983C19.4627 40.5545 20.0109 40.6603 20.5805 40.7157C21.15 40.7712 21.7616 40.8442 22.4152 40.9348ZM25.5968 40.9587C28.6627 40.6746 30.9464 39.7719 32.4479 38.2505C33.9493 36.7292 34.846 34.3578 35.1381 31.1364C33.6569 31.6882 32.3708 32.2966 31.2798 32.9616C30.1888 33.6265 29.3183 34.327 28.6685 35.063C28.2323 35.563 27.869 36.0427 27.5788 36.5022C27.2886 36.9616 27.0281 37.4213 26.7973 37.8815C26.5665 38.3416 26.3631 38.8208 26.187 39.319C26.0109 39.8172 25.8142 40.3638 25.5968 40.9587ZM24 22.8326C26.4488 22.8326 28.5351 21.9727 30.2589 20.2529C31.9827 18.5331 32.8446 16.4488 32.8446 14V9.79673L28.6381 13.3772L24 7.80108L19.3739 13.3772L15.1674 9.79673V14C15.1674 16.4488 16.0273 18.5331 17.7471 20.2529C19.4669 21.9727 21.5512 22.8326 24 22.8326ZM21.9163 44.1554C18.5312 44.1554 15.657 42.9737 13.2938 40.6101C10.9305 38.2465 9.7489 35.3765 9.7489 32V27.832C12.1156 27.807 14.3549 28.2726 16.4669 29.2288C18.5788 30.1849 20.3714 31.505 21.8446 33.1891V26.0273C18.9699 25.5316 16.5846 24.1608 14.6886 21.915C12.7926 19.6693 11.8446 17.0309 11.8446 14V6.24563C11.8446 5.49413 12.1824 4.9664 12.8582 4.66243C13.5339 4.35847 14.141 4.45105 14.6794 4.94018L18.9881 8.66083L22.6946 4.19018C23.0308 3.77572 23.465 3.56848 23.9973 3.56848C24.5295 3.56848 24.9696 3.77572 25.3174 4.19018L29.0239 8.66083L33.3207 4.94018C33.8591 4.45105 34.4681 4.35847 35.1479 4.66243C35.8276 4.9664 36.1674 5.49413 36.1674 6.24563V14C36.1674 17.0301 35.2174 19.6678 33.3174 21.913C31.4174 24.1581 29.0341 25.531 26.1674 26.0315V33.1891C27.6326 31.505 29.4212 30.1852 31.5332 29.2294C33.6451 28.2736 35.8844 27.8078 38.2511 27.832V32C38.2511 35.3765 37.0693 38.2465 34.7058 40.6101C32.3422 42.9737 29.4722 44.1554 26.0957 44.1554H21.9163Z" fill="black"/>
</svg>
