<svg width="304" height="147" viewBox="0 0 304 147" fill="none" xmlns="http://www.w3.org/2000/svg">
<g clip-path="url(#clip0_45_41)">
<path d="M25.2925 127.958C25.7444 127.853 26.1536 127.973 26.5804 128.337C27.0253 128.716 27.4579 129.337 27.8944 130.159C28.4565 131.218 28.9744 132.504 29.5223 133.863C29.8275 134.621 30.1419 135.401 30.4785 136.178C31.0355 138.693 31.3246 140.998 31.1771 142.729C31.0255 144.508 30.448 145.436 29.5136 145.654C28.5488 145.88 27.5897 145.34 26.6671 143.911C25.7596 142.506 24.9986 140.39 24.4376 137.882C24.3754 137.025 24.2989 136.192 24.2255 135.392C24.0759 133.761 23.9393 132.272 23.9633 131.019C23.9812 130.086 24.0895 129.355 24.3148 128.837C24.5283 128.345 24.8348 128.065 25.2925 127.958Z" fill="white" stroke="black"/>
<path d="M30.4473 126.4C30.6637 125.967 31.0234 125.723 31.5666 125.622C32.1338 125.517 32.8738 125.576 33.7673 125.761C34.9189 125.999 36.2103 126.417 37.578 126.86C38.3397 127.107 39.1252 127.361 39.9232 127.597C42.1593 128.774 44.0642 130.025 45.261 131.251C46.4847 132.504 46.8181 133.556 46.3735 134.445C45.9149 135.363 44.8867 135.763 43.237 135.571C41.6078 135.382 39.5408 134.622 37.3072 133.452C36.6261 132.951 35.9534 132.475 35.3085 132.019C33.9942 131.089 32.7951 130.241 31.8748 129.418C31.1902 128.806 30.7148 128.253 30.4731 127.746C30.2442 127.265 30.2282 126.839 30.4473 126.4Z" fill="white" stroke="black"/>
<path d="M31.2056 120.677C31.0938 120.202 31.2122 119.776 31.5595 119.337C31.9223 118.878 32.5205 118.429 33.3154 117.972C34.3401 117.384 35.5849 116.838 36.9036 116.26C37.6381 115.938 38.3954 115.606 39.1503 115.251C41.5944 114.65 43.8339 114.327 45.5198 114.456C47.2421 114.588 48.166 115.162 48.3955 116.137C48.6321 117.143 48.1048 118.133 46.7337 119.089C45.3786 120.033 43.3288 120.838 40.8917 121.444C40.0558 121.518 39.2432 121.607 38.4642 121.692C36.8766 121.865 35.4285 122.023 34.2075 122.014C33.2994 122.008 32.5878 121.906 32.082 121.683C31.6032 121.471 31.3188 121.158 31.2056 120.677Z" fill="white" stroke="black"/>
<path d="M28.7017 116.473C28.2837 116.263 28.0397 115.904 27.9314 115.346C27.8186 114.765 27.8637 114.004 28.0292 113.084C28.2423 111.899 28.6289 110.566 29.038 109.156C29.2658 108.371 29.5006 107.561 29.7162 106.74C30.8273 104.427 32.0171 102.45 33.1943 101.2C34.4025 99.9176 35.4215 99.5667 36.2848 100.001C37.176 100.45 37.5885 101.49 37.4287 103.193C37.2714 104.869 36.564 107.004 35.4602 109.314C34.9824 110.02 34.5299 110.718 34.0959 111.387C33.2112 112.75 32.4033 113.995 31.6155 114.953C31.0291 115.666 30.4962 116.165 30.0033 116.422C29.5363 116.666 29.1252 116.686 28.7017 116.473Z" fill="white" stroke="black"/>
<path d="M22.5914 116.034C22.1406 116.144 21.7302 116.028 21.2998 115.668C20.8512 115.294 20.4124 114.677 19.9678 113.86C19.3953 112.807 18.8647 111.527 18.3033 110.173C17.9907 109.419 17.6685 108.642 17.3243 107.868C16.7424 105.359 16.4305 103.058 16.5608 101.325C16.6948 99.545 17.263 98.6109 18.1953 98.3827C19.1579 98.147 20.1223 98.6772 21.059 100.096C21.9804 101.491 22.7622 103.599 23.3481 106.102C23.4187 106.958 23.5035 107.791 23.5848 108.59C23.7506 110.219 23.9019 111.706 23.8903 112.959C23.8817 113.892 23.7806 114.625 23.5605 115.145C23.3519 115.639 23.0482 115.922 22.5914 116.034Z" fill="white" stroke="black"/>
<path d="M31.3766 123.226C31.4575 122.744 31.731 122.4 32.2195 122.138C32.7297 121.864 33.4525 121.694 34.3588 121.597C35.527 121.472 36.8808 121.476 38.3149 121.481C39.1136 121.483 39.9372 121.486 40.7676 121.466C43.2441 121.905 45.4256 122.517 46.9237 123.319C48.4539 124.139 49.0811 125.041 48.9152 126.03C48.7441 127.05 47.877 127.746 46.2493 128.067C44.6403 128.385 42.4473 128.292 39.9754 127.86C39.1791 127.589 38.3985 127.341 37.6503 127.103C36.1254 126.618 34.7346 126.176 33.6168 125.672C32.7855 125.297 32.1714 124.915 31.7932 124.505C31.4353 124.117 31.2947 123.714 31.3766 123.226Z" fill="white" stroke="black"/>
<path d="M28.1423 126.974C28.5102 126.676 28.933 126.607 29.4695 126.747C30.0291 126.893 30.6791 127.264 31.417 127.814C32.3676 128.522 33.3728 129.455 34.4367 130.442C35.0293 130.991 35.6401 131.558 36.2697 132.112C37.8252 134.138 39.0501 136.09 39.6412 137.718C40.2472 139.385 40.1181 140.481 39.3596 141.094C38.5768 141.727 37.4822 141.657 36.0551 140.775C34.6487 139.906 33.0766 138.331 31.5202 136.313C31.1052 135.567 30.6869 134.847 30.2857 134.157C29.4681 132.751 28.7217 131.467 28.219 130.325C27.8449 129.475 27.6369 128.768 27.6234 128.202C27.6105 127.666 27.7697 127.275 28.1423 126.974Z" fill="white" stroke="black"/>
<path d="M22.5932 127.795C23.0477 127.887 23.3734 128.168 23.6186 128.679C23.8742 129.211 24.0223 129.959 24.0941 130.892C24.1866 132.093 24.1486 133.484 24.1084 134.954C24.086 135.773 24.0629 136.617 24.0613 137.468C23.5702 139.997 22.9182 142.222 22.0951 143.742C21.2495 145.303 20.3532 145.909 19.4133 145.719C18.4427 145.522 17.7816 144.628 17.5068 142.938C17.2366 141.276 17.3828 139.026 17.8676 136.501C18.1514 135.693 18.413 134.899 18.6639 134.138C19.1755 132.586 19.6427 131.169 20.1628 130.035C20.5499 129.191 20.9396 128.568 21.3514 128.189C21.7417 127.829 22.1328 127.702 22.5932 127.795Z" fill="white" stroke="black"/>
<path d="M20.4444 126.941C20.7945 127.261 20.9347 127.677 20.8925 128.242C20.8485 128.833 20.6053 129.553 20.2043 130.393C19.6878 131.475 18.9658 132.651 18.2015 133.895C17.7758 134.588 17.337 135.303 16.9134 136.035C15.2359 137.955 13.5716 139.529 12.1106 140.407C10.6136 141.307 9.53841 141.367 8.81694 140.706C8.07243 140.024 7.95116 138.907 8.55123 137.314C9.14276 135.745 10.384 133.885 12.0537 131.965C12.6995 131.417 13.3186 130.87 13.9123 130.346C15.1224 129.278 16.2269 128.302 17.237 127.597C17.9886 127.073 18.632 126.741 19.1735 126.629C19.6864 126.523 20.0898 126.616 20.4444 126.941Z" fill="white" stroke="black"/>
<path d="M19.1161 124.761C19.301 125.21 19.2521 125.65 18.9786 126.142C18.693 126.655 18.1735 127.198 17.4611 127.78C16.543 128.531 15.4005 129.277 14.1905 130.066C13.5166 130.506 12.8217 130.959 12.133 131.435C9.8161 132.434 7.65683 133.126 5.97218 133.278C4.25018 133.434 3.24877 133.02 2.86902 132.098C2.47738 131.147 2.83984 130.082 4.04271 128.91C5.231 127.753 7.127 126.618 9.43648 125.616C10.2494 125.403 11.0373 125.181 11.7926 124.967C13.3319 124.533 14.7361 124.136 15.9426 123.942C16.84 123.798 17.5587 123.78 18.0934 123.916C18.5996 124.046 18.9289 124.307 19.1161 124.761Z" fill="white" stroke="black"/>
<path d="M18.2528 121.958C18.2522 122.447 18.0387 122.833 17.6003 123.176C17.1423 123.534 16.4578 123.826 15.5803 124.077C14.4493 124.402 13.1143 124.631 11.6999 124.874C10.9122 125.009 10.0999 125.148 9.28454 125.311C6.77129 125.304 4.52077 125.078 2.91245 124.544C1.26996 124 0.503321 123.219 0.504605 122.215C0.50593 121.179 1.24696 120.344 2.7984 119.747C4.33225 119.157 6.50903 118.87 9.01653 118.871C9.84601 119.001 10.6561 119.111 11.4328 119.217C13.0154 119.432 14.4589 119.628 15.6433 119.932C16.5241 120.158 17.192 120.429 17.6321 120.768C18.0486 121.089 18.2534 121.462 18.2528 121.958Z" fill="white" stroke="black"/>
<path d="M18.9772 118.939C18.8263 119.402 18.5056 119.699 17.9837 119.883C17.4387 120.074 16.6988 120.13 15.7885 120.085C14.6153 120.026 13.2776 119.812 11.8606 119.585C11.0714 119.458 10.2577 119.327 9.43407 119.218C7.05104 118.398 4.98492 117.455 3.62259 116.428C2.23049 115.379 1.7451 114.39 2.05499 113.44C2.37455 112.46 3.33372 111.906 4.9912 111.842C6.62904 111.778 8.78336 112.211 11.1628 113.023C11.9098 113.414 12.6445 113.781 13.349 114.133C14.7845 114.849 16.094 115.502 17.1243 116.174C17.8907 116.674 18.4414 117.147 18.7546 117.612C19.0511 118.051 19.13 118.471 18.9772 118.939Z" fill="white" stroke="black"/>
<path d="M21.0762 116.707C20.7705 117.075 20.3675 117.228 19.8153 117.199C19.2391 117.167 18.5315 116.935 17.7031 116.544C16.6358 116.04 15.4723 115.328 14.2405 114.574C13.5545 114.155 12.8472 113.722 12.1236 113.305C10.2114 111.631 8.63768 109.963 7.74747 108.487C6.83604 106.976 6.75063 105.875 7.37999 105.118C8.0293 104.337 9.11784 104.188 10.6832 104.765C12.2273 105.334 14.0692 106.561 15.9808 108.227C16.5307 108.876 17.0785 109.498 17.6038 110.094C18.6743 111.308 19.6513 112.417 20.3624 113.435C20.8915 114.193 21.2303 114.844 21.3517 115.396C21.4666 115.918 21.3859 116.335 21.0762 116.707Z" fill="white" stroke="black"/>
<path d="M25.5863 116.093C25.1291 116.017 24.794 115.748 24.5313 115.247C24.2575 114.725 24.0836 113.982 23.9797 113.052C23.8458 111.855 23.8358 110.464 23.8253 108.993C23.8194 108.174 23.8133 107.329 23.7856 106.479C24.1891 103.934 24.7639 101.686 25.5342 100.138C26.3254 98.5467 27.2003 97.9085 28.1459 98.0649C29.1224 98.2265 29.814 99.0954 30.1469 100.775C30.4744 102.426 30.4058 104.68 30.0084 107.221C29.7528 108.039 29.5187 108.842 29.2941 109.611C28.8364 111.18 28.4184 112.614 27.9378 113.766C27.58 114.624 27.212 115.26 26.8136 115.654C26.4358 116.028 26.0494 116.169 25.5863 116.093Z" fill="white" stroke="black"/>
<path d="M30.0701 117.846C29.7944 117.452 29.7465 117.014 29.9073 116.472C30.0753 115.906 30.465 115.258 31.0341 114.528C31.7676 113.587 32.7212 112.601 33.731 111.556C34.2934 110.975 34.8732 110.375 35.442 109.755C37.4862 108.255 39.4435 107.09 41.0545 106.559C42.7032 106.015 43.7673 106.194 44.3343 107.004C44.9192 107.839 44.7979 108.958 43.8763 110.376C42.9667 111.775 41.3618 113.313 39.3254 114.814C38.5787 115.206 37.8584 115.601 37.1678 115.981C35.7603 116.754 34.476 117.46 33.3409 117.923C32.4965 118.267 31.7989 118.448 31.2473 118.436C30.7251 118.425 30.3492 118.244 30.0701 117.846Z" fill="white" stroke="black"/>
<path d="M42.8443 122.521C42.8443 131.931 34.9957 139.582 25.2842 139.582C15.5727 139.582 7.72406 131.931 7.72406 122.521C7.72406 113.112 15.5727 105.461 25.2842 105.461C34.9957 105.461 42.8443 113.112 42.8443 122.521Z" fill="#FFBD00" stroke="black"/>
<path d="M14.1335 117.959C14.9781 117.138 15.7633 116.565 16.9228 116.213C17.4741 116.045 18.1108 115.708 18.6833 115.708C19.0976 115.708 19.5016 115.631 19.9206 115.631C20.5432 115.631 21.1875 115.625 21.6545 116.079C21.9791 116.395 22.3326 116.872 22.834 116.872" stroke="black" stroke-width="2" stroke-linecap="round"/>
<path d="M28.4215 116.64C28.4215 115.567 29.9783 115.089 30.7984 114.777C31.9876 114.324 32.9732 114.001 34.2662 114.001C34.7239 114.001 35.087 113.987 35.5078 114.139C35.8143 114.249 35.9686 114.49 36.244 114.639C36.4399 114.745 37.0422 115.228 37.0422 115.398" stroke="black" stroke-width="2" stroke-linecap="round"/>
<path d="M18 125C18.0642 125.625 19.5933 126.565 20 127C20.478 127.511 21.7336 128.125 22.3939 128.411C23.3499 128.824 24.4865 129.057 25.5291 129.122C25.9709 129.15 26.4211 129.126 26.8638 129.126C27.3148 129.126 27.8621 129.209 28.3006 129.092C28.7908 128.961 29.2041 128.679 29.6354 128.432C29.9829 128.233 30.3877 128.08 30.6775 127.798C31.1896 127.3 32.1192 126.576 32.5 126C32.8657 125.447 34 124.629 34 124" stroke="black" stroke-width="2" stroke-linecap="round"/>
<path d="M90.5757 125.09V133H70.998V125.09H74.6016V105.776H71.5034L70.5586 111.796H64.3843V98.0415H97.2773V111.796H91.125L90.1802 105.776H86.9722V125.09H90.5757Z" fill="#8081C6"/>
<path d="M124.857 125.266V133H107.301V125.266H110.817V105.776H107.301V98.0415L124.857 97.9976V105.776H122.067V111.533H130.482V105.776H127.692V97.9976L145.226 98.0415V105.776H141.732V125.266H145.226V133H127.692V125.266H130.482V119.047H122.067V125.266H124.857Z" fill="#66C2EF"/>
<path d="M174.718 125.266V133H156.458V125.266H159.974V105.776H156.458V98.0415H174.718V105.776H171.224V125.266H174.718Z" fill="#53CC90"/>
<path d="M198.738 125.134V133H184.742V125.134H188.301V105.732H184.83V97.9976H200.979L211.922 118.784V105.776H208.406V98.0415H222.403V105.776H218.931V133H205.616L195.223 113.686V125.134H198.738Z" fill="#FF87BF"/>
<path d="M251.323 133.637C247.734 133.637 244.475 132.971 241.545 131.638C238.586 130.319 236.221 128.269 234.448 125.485C232.676 122.702 231.79 119.194 231.79 114.96C231.79 111.591 232.485 108.574 233.877 105.908C235.269 103.242 237.29 101.154 239.941 99.6455C242.607 98.1221 245.742 97.3604 249.346 97.3604C250.869 97.3604 252.349 97.6167 253.784 98.1294C255.234 98.6421 256.377 99.3892 257.212 100.371L257.937 98.0415H265.54V110.939H258.75C258.296 109.094 257.424 107.695 256.135 106.743C254.846 105.791 253.499 105.314 252.092 105.314C249.749 105.314 247.896 106.171 246.533 107.885C245.171 109.599 244.49 111.958 244.49 114.96C244.49 117.993 245.164 120.373 246.511 122.102C247.859 123.815 249.763 124.672 252.224 124.672C252.81 124.672 253.44 124.614 254.114 124.497C254.612 124.409 255.081 124.292 255.52 124.145C255.959 123.984 256.252 123.889 256.399 123.859V120.761H252.18V114.235H266.265V129.946C264.009 131.147 261.592 132.062 259.014 132.692C256.436 133.322 253.872 133.637 251.323 133.637Z" fill="#FFBA56"/>
<path d="M293.12 133.637C291.918 133.637 290.893 133.549 290.043 133.374C289.194 133.198 288.403 132.912 287.67 132.517C286.953 132.121 286.184 131.608 285.363 130.979L284.594 133H277.497V122.299H284.55C285.004 123.53 285.7 124.401 286.638 124.914C287.59 125.412 288.754 125.661 290.131 125.661C290.981 125.661 291.706 125.493 292.307 125.156C292.907 124.804 293.208 124.343 293.208 123.771C293.208 123.054 292.9 122.519 292.285 122.167C291.669 121.801 290.805 121.464 289.692 121.157C288.271 120.776 286.982 120.373 285.825 119.948C284.682 119.523 283.657 119.084 282.749 118.63C280.932 117.722 279.467 116.433 278.354 114.763C277.241 113.093 276.684 110.874 276.684 108.105C276.684 105.981 277.146 104.106 278.068 102.48C278.977 100.869 280.28 99.6162 281.979 98.7227C283.693 97.8145 285.708 97.3604 288.022 97.3604C290.849 97.3604 293.083 98.2612 294.724 100.063L295.844 97.9976H302.15V108.479H295.405C294.775 107.16 294.079 106.245 293.317 105.732C292.556 105.219 291.508 104.963 290.175 104.963C289.165 104.963 288.381 105.146 287.824 105.512C287.268 105.864 286.989 106.354 286.989 106.984C286.989 107.688 287.392 108.222 288.198 108.588C288.989 108.969 290.117 109.321 291.582 109.643C294.145 110.229 296.357 110.969 298.217 111.862C300.034 112.756 301.484 114.023 302.568 115.664C303.667 117.29 304.216 119.392 304.216 121.97C304.216 124.152 303.762 126.13 302.854 127.902C301.931 129.675 300.62 131.074 298.92 132.099C297.236 133.125 295.302 133.637 293.12 133.637Z" fill="#F4EF9C"/>
<path d="M90.5757 125.09H91.0757V124.59H90.5757V125.09ZM90.5757 133V133.5H91.0757V133H90.5757ZM70.998 133H70.498V133.5H70.998V133ZM70.998 125.09V124.59H70.498V125.09H70.998ZM74.6016 125.09V125.59H75.1016V125.09H74.6016ZM74.6016 105.776H75.1016V105.276H74.6016V105.776ZM71.5034 105.776V105.276H71.0758L71.0095 105.698L71.5034 105.776ZM70.5586 111.796V112.296H70.9862L71.0525 111.874L70.5586 111.796ZM64.3843 111.796H63.8843V112.296H64.3843V111.796ZM64.3843 98.0415V97.5415H63.8843V98.0415H64.3843ZM97.2773 98.0415H97.7773V97.5415H97.2773V98.0415ZM97.2773 111.796V112.296H97.7773V111.796H97.2773ZM91.125 111.796L90.631 111.874L90.6973 112.296H91.125V111.796ZM90.1802 105.776L90.6741 105.698L90.6078 105.276H90.1802V105.776ZM86.9722 105.776V105.276H86.4722V105.776H86.9722ZM86.9722 125.09H86.4722V125.59H86.9722V125.09ZM90.0757 125.09V133H91.0757V125.09H90.0757ZM90.5757 132.5H70.998V133.5H90.5757V132.5ZM71.498 133V125.09H70.498V133H71.498ZM70.998 125.59H74.6016V124.59H70.998V125.59ZM75.1016 125.09V105.776H74.1016V125.09H75.1016ZM74.6016 105.276H71.5034V106.276H74.6016V105.276ZM71.0095 105.698L70.0646 111.719L71.0525 111.874L71.9974 105.853L71.0095 105.698ZM70.5586 111.296H64.3843V112.296H70.5586V111.296ZM64.8843 111.796V98.0415H63.8843V111.796H64.8843ZM64.3843 98.5415H97.2773V97.5415H64.3843V98.5415ZM96.7773 98.0415V111.796H97.7773V98.0415H96.7773ZM97.2773 111.296H91.125V112.296H97.2773V111.296ZM91.619 111.719L90.6741 105.698L89.6862 105.853L90.631 111.874L91.619 111.719ZM90.1802 105.276H86.9722V106.276H90.1802V105.276ZM86.4722 105.776V125.09H87.4722V105.776H86.4722ZM86.9722 125.59H90.5757V124.59H86.9722V125.59ZM124.857 125.266H125.357V124.766H124.857V125.266ZM124.857 133V133.5H125.357V133H124.857ZM107.301 133H106.801V133.5H107.301V133ZM107.301 125.266V124.766H106.801V125.266H107.301ZM110.817 125.266V125.766H111.317V125.266H110.817ZM110.817 105.776H111.317V105.276H110.817V105.776ZM107.301 105.776H106.801V106.276H107.301V105.776ZM107.301 98.0415L107.3 97.5415L106.801 97.5428V98.0415H107.301ZM124.857 97.9976H125.357V97.4963L124.856 97.4976L124.857 97.9976ZM124.857 105.776V106.276H125.357V105.776H124.857ZM122.067 105.776V105.276H121.567V105.776H122.067ZM122.067 111.533H121.567V112.033H122.067V111.533ZM130.482 111.533V112.033H130.982V111.533H130.482ZM130.482 105.776H130.982V105.276H130.482V105.776ZM127.692 105.776H127.192V106.276H127.692V105.776ZM127.692 97.9976L127.693 97.4976L127.192 97.4963V97.9976H127.692ZM145.226 98.0415H145.726V97.5428L145.227 97.5415L145.226 98.0415ZM145.226 105.776V106.276H145.726V105.776H145.226ZM141.732 105.776V105.276H141.232V105.776H141.732ZM141.732 125.266H141.232V125.766H141.732V125.266ZM145.226 125.266H145.726V124.766H145.226V125.266ZM145.226 133V133.5H145.726V133H145.226ZM127.692 133H127.192V133.5H127.692V133ZM127.692 125.266V124.766H127.192V125.266H127.692ZM130.482 125.266V125.766H130.982V125.266H130.482ZM130.482 119.047H130.982V118.547H130.482V119.047ZM122.067 119.047V118.547H121.567V119.047H122.067ZM122.067 125.266H121.567V125.766H122.067V125.266ZM124.357 125.266V133H125.357V125.266H124.357ZM124.857 132.5H107.301V133.5H124.857V132.5ZM107.801 133V125.266H106.801V133H107.801ZM107.301 125.766H110.817V124.766H107.301V125.766ZM111.317 125.266V105.776H110.317V125.266H111.317ZM110.817 105.276H107.301V106.276H110.817V105.276ZM107.801 105.776V98.0415H106.801V105.776H107.801ZM107.303 98.5415L124.859 98.4976L124.856 97.4976L107.3 97.5415L107.303 98.5415ZM124.357 97.9976V105.776H125.357V97.9976H124.357ZM124.857 105.276H122.067V106.276H124.857V105.276ZM121.567 105.776V111.533H122.567V105.776H121.567ZM122.067 112.033H130.482V111.033H122.067V112.033ZM130.982 111.533V105.776H129.982V111.533H130.982ZM130.482 105.276H127.692V106.276H130.482V105.276ZM128.192 105.776V97.9976H127.192V105.776H128.192ZM127.691 98.4976L145.225 98.5415L145.227 97.5415L127.693 97.4976L127.691 98.4976ZM144.726 98.0415V105.776H145.726V98.0415H144.726ZM145.226 105.276H141.732V106.276H145.226V105.276ZM141.232 105.776V125.266H142.232V105.776H141.232ZM141.732 125.766H145.226V124.766H141.732V125.766ZM144.726 125.266V133H145.726V125.266H144.726ZM145.226 132.5H127.692V133.5H145.226V132.5ZM128.192 133V125.266H127.192V133H128.192ZM127.692 125.766H130.482V124.766H127.692V125.766ZM130.982 125.266V119.047H129.982V125.266H130.982ZM130.482 118.547H122.067V119.547H130.482V118.547ZM121.567 119.047V125.266H122.567V119.047H121.567ZM122.067 125.766H124.857V124.766H122.067V125.766ZM174.718 125.266H175.218V124.766H174.718V125.266ZM174.718 133V133.5H175.218V133H174.718ZM156.458 133H155.958V133.5H156.458V133ZM156.458 125.266V124.766H155.958V125.266H156.458ZM159.974 125.266V125.766H160.474V125.266H159.974ZM159.974 105.776H160.474V105.276H159.974V105.776ZM156.458 105.776H155.958V106.276H156.458V105.776ZM156.458 98.0415V97.5415H155.958V98.0415H156.458ZM174.718 98.0415H175.218V97.5415H174.718V98.0415ZM174.718 105.776V106.276H175.218V105.776H174.718ZM171.224 105.776V105.276H170.724V105.776H171.224ZM171.224 125.266H170.724V125.766H171.224V125.266ZM174.218 125.266V133H175.218V125.266H174.218ZM174.718 132.5H156.458V133.5H174.718V132.5ZM156.958 133V125.266H155.958V133H156.958ZM156.458 125.766H159.974V124.766H156.458V125.766ZM160.474 125.266V105.776H159.474V125.266H160.474ZM159.974 105.276H156.458V106.276H159.974V105.276ZM156.958 105.776V98.0415H155.958V105.776H156.958ZM156.458 98.5415H174.718V97.5415H156.458V98.5415ZM174.218 98.0415V105.776H175.218V98.0415H174.218ZM174.718 105.276H171.224V106.276H174.718V105.276ZM170.724 105.776V125.266H171.724V105.776H170.724ZM171.224 125.766H174.718V124.766H171.224V125.766ZM198.738 125.134H199.238V124.634H198.738V125.134ZM198.738 133V133.5H199.238V133H198.738ZM184.742 133H184.242V133.5H184.742V133ZM184.742 125.134V124.634H184.242V125.134H184.742ZM188.301 125.134V125.634H188.801V125.134H188.301ZM188.301 105.732H188.801V105.232H188.301V105.732ZM184.83 105.732H184.33V106.232H184.83V105.732ZM184.83 97.9976V97.4976H184.33V97.9976H184.83ZM200.979 97.9976L201.422 97.7646L201.281 97.4976H200.979V97.9976ZM211.922 118.784L211.479 119.017L212.422 118.784H211.922ZM211.922 105.776H212.422V105.276H211.922V105.776ZM208.406 105.776H207.906V106.276H208.406V105.776ZM208.406 98.0415V97.5415H207.906V98.0415H208.406ZM222.403 98.0415H222.903V97.5415H222.403V98.0415ZM222.403 105.776V106.276H222.903V105.776H222.403ZM218.931 105.776V105.276H218.431V105.776H218.931ZM218.931 133V133.5H219.431V133H218.931ZM205.616 133L205.175 133.237L205.317 133.5H205.616V133ZM195.223 113.686L195.663 113.449L194.723 113.686H195.223ZM195.223 125.134H194.723V125.634H195.223V125.134ZM198.238 125.134V133H199.238V125.134H198.238ZM198.738 132.5H184.742V133.5H198.738V132.5ZM185.242 133V125.134H184.242V133H185.242ZM184.742 125.634H188.301V124.634H184.742V125.634ZM188.801 125.134V105.732H187.801V125.134H188.801ZM188.301 105.232H184.83V106.232H188.301V105.232ZM185.33 105.732V97.9976H184.33V105.732H185.33ZM184.83 98.4976H200.979V97.4976H184.83V98.4976ZM200.537 98.2305L211.479 119.017L212.364 118.551L201.422 97.7646L200.537 98.2305ZM212.422 118.784V105.776H211.422V118.784H212.422ZM211.922 105.276H208.406V106.276H211.922V105.276ZM208.906 105.776V98.0415H207.906V105.776H208.906ZM208.406 98.5415H222.403V97.5415H208.406V98.5415ZM221.903 98.0415V105.776H222.903V98.0415H221.903ZM222.403 105.276H218.931V106.276H222.403V105.276ZM218.431 105.776V133H219.431V105.776H218.431ZM218.931 132.5H205.616V133.5H218.931V132.5ZM206.056 132.763L195.663 113.449L194.782 113.923L205.175 133.237L206.056 132.763ZM194.723 113.686V125.134H195.723V113.686H194.723ZM195.223 125.634H198.738V124.634H195.223V125.634ZM241.545 131.638L241.752 131.183L241.749 131.181L241.545 131.638ZM239.941 99.6455L240.189 100.08L240.189 100.08L239.941 99.6455ZM253.784 98.1294L253.616 98.6003L253.618 98.6008L253.784 98.1294ZM257.212 100.371L256.831 100.695L257.419 101.386L257.689 100.519L257.212 100.371ZM257.937 98.0415V97.5415H257.569L257.46 97.8929L257.937 98.0415ZM265.54 98.0415H266.04V97.5415H265.54V98.0415ZM265.54 110.939V111.439H266.04V110.939H265.54ZM258.75 110.939L258.264 111.059L258.358 111.439H258.75V110.939ZM246.511 122.102L246.117 122.409L246.118 122.411L246.511 122.102ZM254.114 124.497L254.199 124.989L254.201 124.989L254.114 124.497ZM255.52 124.145L255.678 124.619L255.685 124.617L255.692 124.614L255.52 124.145ZM256.399 123.859L256.497 124.35L256.899 124.269V123.859H256.399ZM256.399 120.761H256.899V120.261H256.399V120.761ZM252.18 120.761H251.68V121.261H252.18V120.761ZM252.18 114.235V113.735H251.68V114.235H252.18ZM266.265 114.235H266.765V113.735H266.265V114.235ZM266.265 129.946L266.5 130.387L266.765 130.246V129.946H266.265ZM251.323 133.137C247.798 133.137 244.61 132.483 241.752 131.183L241.338 132.093C244.34 133.459 247.671 134.137 251.323 134.137V133.137ZM241.749 131.181C238.881 129.903 236.591 127.919 234.87 125.217L234.027 125.754C235.851 128.618 238.292 130.735 241.342 132.094L241.749 131.181ZM234.87 125.217C233.161 122.534 232.29 119.125 232.29 114.96H231.29C231.29 119.262 232.19 122.871 234.027 125.754L234.87 125.217ZM232.29 114.96C232.29 111.662 232.97 108.725 234.32 106.139L233.434 105.676C232.001 108.422 231.29 111.521 231.29 114.96H232.29ZM234.32 106.139C235.667 103.56 237.62 101.542 240.189 100.08L239.694 99.2109C236.961 100.767 234.87 102.924 233.434 105.676L234.32 106.139ZM240.189 100.08C242.768 98.6063 245.814 97.8604 249.346 97.8604V96.8604C245.67 96.8604 242.447 97.6378 239.693 99.2114L240.189 100.08ZM249.346 97.8604C250.812 97.8604 252.234 98.1068 253.616 98.6003L253.952 97.6585C252.463 97.1266 250.926 96.8604 249.346 96.8604V97.8604ZM253.618 98.6008C255.001 99.0898 256.063 99.7923 256.831 100.695L257.593 100.047C256.69 98.9861 255.468 98.1944 253.951 97.658L253.618 98.6008ZM257.689 100.519L258.414 98.1901L257.46 97.8929L256.735 100.222L257.689 100.519ZM257.937 98.5415H265.54V97.5415H257.937V98.5415ZM265.04 98.0415V110.939H266.04V98.0415H265.04ZM265.54 110.439H258.75V111.439H265.54V110.439ZM259.236 110.82C258.759 108.883 257.832 107.374 256.432 106.34L255.838 107.145C257.017 108.015 257.833 109.305 258.264 111.059L259.236 110.82ZM256.432 106.34C255.07 105.334 253.62 104.814 252.092 104.814V105.814C253.377 105.814 254.623 106.247 255.838 107.145L256.432 106.34ZM252.092 104.814C249.608 104.814 247.606 105.732 246.142 107.574L246.925 108.196C248.185 106.611 249.889 105.814 252.092 105.814V104.814ZM246.142 107.574C244.687 109.404 243.99 111.886 243.99 114.96H244.99C244.99 112.029 245.655 109.794 246.925 108.196L246.142 107.574ZM243.99 114.96C243.99 118.062 244.679 120.564 246.117 122.409L246.906 121.794C245.648 120.182 244.99 117.923 244.99 114.96H243.99ZM246.118 122.411C247.574 124.262 249.632 125.172 252.224 125.172V124.172C249.894 124.172 248.144 123.369 246.904 121.793L246.118 122.411ZM252.224 125.172C252.843 125.172 253.502 125.111 254.199 124.989L254.028 124.004C253.378 124.117 252.777 124.172 252.224 124.172V125.172ZM254.201 124.989C254.721 124.897 255.213 124.774 255.678 124.619L255.362 123.671C254.948 123.809 254.503 123.92 254.027 124.004L254.201 124.989ZM255.692 124.614C256.139 124.451 256.395 124.37 256.497 124.35L256.301 123.369C256.11 123.407 255.78 123.517 255.348 123.676L255.692 124.614ZM256.899 123.859V120.761H255.899V123.859H256.899ZM256.399 120.261H252.18V121.261H256.399V120.261ZM252.68 120.761V114.235H251.68V120.761H252.68ZM252.18 114.735H266.265V113.735H252.18V114.735ZM265.765 114.235V129.946H266.765V114.235H265.765ZM266.03 129.504C263.812 130.685 261.434 131.586 258.895 132.207L259.132 133.178C261.749 132.539 264.206 131.609 266.5 130.387L266.03 129.504ZM258.895 132.207C256.354 132.827 253.83 133.137 251.323 133.137V134.137C253.914 134.137 256.517 133.817 259.132 133.178L258.895 132.207ZM287.67 132.517L287.429 132.955L287.433 132.957L287.67 132.517ZM285.363 130.979L285.668 130.582L285.135 130.173L284.896 130.801L285.363 130.979ZM284.594 133V133.5H284.939L285.062 133.178L284.594 133ZM277.497 133H276.997V133.5H277.497V133ZM277.497 122.299V121.799H276.997V122.299H277.497ZM284.55 122.299L285.019 122.126L284.899 121.799H284.55V122.299ZM286.638 124.914L286.398 125.353L286.406 125.357L286.638 124.914ZM292.307 125.156L292.551 125.592L292.559 125.587L292.307 125.156ZM292.285 122.167L292.029 122.597L292.037 122.602L292.285 122.167ZM289.692 121.157L289.825 120.675L289.821 120.674L289.692 121.157ZM285.825 119.948L285.65 120.417L285.652 120.418L285.825 119.948ZM278.068 102.48L278.503 102.727L278.504 102.725L278.068 102.48ZM281.979 98.7227L282.212 99.1652L282.214 99.1645L281.979 98.7227ZM294.724 100.063L294.354 100.4L294.828 100.92L295.163 100.301L294.724 100.063ZM295.844 97.9976V97.4976H295.547L295.405 97.7591L295.844 97.9976ZM302.15 97.9976H302.65V97.4976H302.15V97.9976ZM302.15 108.479V108.979H302.65V108.479H302.15ZM295.405 108.479L294.954 108.694L295.09 108.979H295.405V108.479ZM287.824 105.512L288.091 105.935L288.099 105.93L287.824 105.512ZM288.198 108.588L288.415 108.138L288.405 108.133L288.198 108.588ZM291.582 109.643L291.693 109.156L291.689 109.155L291.582 109.643ZM298.217 111.862L298.438 111.414L298.434 111.412L298.217 111.862ZM302.568 115.664L302.151 115.939L302.154 115.944L302.568 115.664ZM302.854 127.902L303.297 128.133L303.299 128.13L302.854 127.902ZM298.92 132.099L298.662 131.671L298.66 131.672L298.92 132.099ZM293.12 133.137C291.941 133.137 290.951 133.051 290.145 132.884L289.942 133.863C290.835 134.048 291.896 134.137 293.12 134.137V133.137ZM290.145 132.884C289.341 132.718 288.596 132.448 287.908 132.077L287.433 132.957C288.21 133.376 289.047 133.678 289.942 133.863L290.145 132.884ZM287.912 132.079C287.221 131.698 286.473 131.2 285.668 130.582L285.059 131.375C285.894 132.017 286.684 132.544 287.429 132.955L287.912 132.079ZM284.896 130.801L284.127 132.822L285.062 133.178L285.831 131.156L284.896 130.801ZM284.594 132.5H277.497V133.5H284.594V132.5ZM277.997 133V122.299H276.997V133H277.997ZM277.497 122.799H284.55V121.799H277.497V122.799ZM284.081 122.472C284.567 123.789 285.332 124.77 286.398 125.353L286.878 124.475C286.069 124.033 285.442 123.27 285.019 122.126L284.081 122.472ZM286.406 125.357C287.447 125.902 288.696 126.161 290.131 126.161V125.161C288.813 125.161 287.733 124.923 286.869 124.471L286.406 125.357ZM290.131 126.161C291.047 126.161 291.86 125.979 292.551 125.592L292.062 124.72C291.552 125.006 290.915 125.161 290.131 125.161V126.161ZM292.559 125.587C293.274 125.169 293.708 124.561 293.708 123.771H292.708C292.708 124.124 292.541 124.439 292.054 124.724L292.559 125.587ZM293.708 123.771C293.708 122.877 293.306 122.175 292.533 121.733L292.037 122.602C292.494 122.863 292.708 123.23 292.708 123.771H293.708ZM292.54 121.738C291.871 121.339 290.959 120.988 289.825 120.675L289.559 121.639C290.652 121.941 291.468 122.263 292.029 122.597L292.54 121.738ZM289.821 120.674C288.412 120.296 287.138 119.898 285.997 119.479L285.652 120.418C286.826 120.848 288.13 121.256 289.562 121.64L289.821 120.674ZM285.999 119.48C284.87 119.06 283.861 118.627 282.972 118.183L282.525 119.077C283.452 119.541 284.494 119.987 285.65 120.417L285.999 119.48ZM282.972 118.183C281.233 117.313 279.834 116.082 278.77 114.485L277.938 115.04C279.1 116.783 280.632 118.13 282.525 119.077L282.972 118.183ZM278.77 114.485C277.729 112.923 277.184 110.811 277.184 108.105H276.184C276.184 110.936 276.753 113.262 277.938 115.04L278.77 114.485ZM277.184 108.105C277.184 106.056 277.629 104.268 278.503 102.727L277.634 102.233C276.662 103.944 276.184 105.906 276.184 108.105H277.184ZM278.504 102.725C279.363 101.201 280.595 100.016 282.212 99.1652L281.747 98.2801C279.966 99.2167 278.59 100.536 277.633 102.234L278.504 102.725ZM282.214 99.1645C283.843 98.3012 285.773 97.8604 288.022 97.8604V96.8604C285.642 96.8604 283.544 97.3277 281.745 98.2809L282.214 99.1645ZM288.022 97.8604C290.733 97.8604 292.824 98.7189 294.354 100.4L295.093 99.7264C293.342 97.8035 290.965 96.8604 288.022 96.8604V97.8604ZM295.163 100.301L296.284 98.236L295.405 97.7591L294.284 99.8245L295.163 100.301ZM295.844 98.4976H302.15V97.4976H295.844V98.4976ZM301.65 97.9976V108.479H302.65V97.9976H301.65ZM302.15 107.979H295.405V108.979H302.15V107.979ZM295.856 108.263C295.208 106.907 294.464 105.901 293.597 105.317L293.038 106.147C293.694 106.588 294.342 107.413 294.954 108.694L295.856 108.263ZM293.597 105.317C292.723 104.729 291.565 104.463 290.175 104.463V105.463C291.452 105.463 292.388 105.709 293.038 106.147L293.597 105.317ZM290.175 104.463C289.114 104.463 288.22 104.654 287.549 105.094L288.099 105.93C288.542 105.638 289.215 105.463 290.175 105.463V104.463ZM287.557 105.089C286.863 105.528 286.489 106.174 286.489 106.984H287.489C287.489 106.535 287.672 106.2 288.091 105.935L287.557 105.089ZM286.489 106.984C286.489 107.439 286.622 107.855 286.892 108.214C287.157 108.566 287.536 108.837 287.991 109.044L288.405 108.133C288.054 107.974 287.828 107.794 287.691 107.612C287.558 107.436 287.489 107.233 287.489 106.984H286.489ZM287.981 109.039C288.823 109.444 289.994 109.806 291.474 110.131L291.689 109.155C290.239 108.836 289.155 108.494 288.415 108.138L287.981 109.039ZM291.47 110.13C294.007 110.71 296.182 111.439 298.001 112.313L298.434 111.412C296.532 110.498 294.283 109.748 291.693 109.156L291.47 110.13ZM297.997 112.311C299.736 113.167 301.117 114.375 302.151 115.939L302.985 115.388C301.851 113.671 300.332 112.345 298.438 111.414L297.997 112.311ZM302.154 115.944C303.181 117.464 303.716 119.46 303.716 121.97H304.716C304.716 119.323 304.152 117.115 302.982 115.384L302.154 115.944ZM303.716 121.97C303.716 124.081 303.277 125.979 302.409 127.674L303.299 128.13C304.246 126.281 304.716 124.224 304.716 121.97H303.716ZM302.41 127.671C301.529 129.363 300.282 130.693 298.662 131.671L299.179 132.527C300.957 131.454 302.332 129.987 303.297 128.133L302.41 127.671ZM298.66 131.672C297.062 132.645 295.221 133.137 293.12 133.137V134.137C295.384 134.137 297.409 133.604 299.18 132.526L298.66 131.672Z" fill="black"/>
<path d="M186.532 96.5C181.996 86.1 189.996 83.5 194.563 83.5H197.397L199.287 88.5L193.618 90.5L188.894 85.5L189.366 79L194.563 75H199.759H204.011" stroke="#F7F29E" stroke-width="3"/>
<path d="M69.1251 5.41633C78.4875 -0.328958 81.6765 7.85959 82.1007 12.672L82.364 15.6591L77.8358 18.1149L75.4278 12.3266L79.6926 6.88375L85.8513 6.77781L90.0969 11.8825L90.5796 17.3587L90.9745 21.8392" stroke="#F7F29E" stroke-width="3"/>
<path d="M25.0117 60.9219V69H6.67529V60.9219H10.3472V40.5659H6.67529V32.4878L25.0117 32.4419V40.5659H22.0972V46.5786H30.8867V40.5659H27.9722V32.4419L46.2856 32.4878V40.5659H42.6367V60.9219H46.2856V69H27.9722V60.9219H30.8867V54.4272H22.0972V60.9219H25.0117Z" fill="#FFBA56"/>
<path d="M74.2516 60.9219V69H58.1412V60.9219H61.7672L68.0553 40.5659H63.2589V32.4878H86.0016L94.1485 60.9219H97.7516V69H77.212V60.9219H80.1954L79.2086 57.0205H70.9239L69.8912 60.9219H74.2516ZM78.107 51.4668L75.4449 40.2905L72.0943 51.4668H78.107Z" fill="#FF87BF"/>
<path d="M128.793 69H109.056V60.7842H112.636V40.5659H109.148V32.4419H128.701C131.7 32.4419 134.354 32.7708 136.664 33.4287C138.99 34.0713 140.81 35.1576 142.126 36.6875C143.457 38.2174 144.123 40.3211 144.123 42.9985C144.123 47.6802 142.853 51.0461 140.313 53.0962C137.773 55.1463 133.964 56.1714 128.884 56.1714C127.584 56.1714 126.444 56.0949 125.465 55.9419V60.7842H128.793V69ZM125.511 40.5659V48.6899H126.452C129.925 48.6899 131.661 47.16 131.661 44.1001C131.661 42.9679 131.279 42.0959 130.514 41.4839C129.749 40.8719 128.724 40.5659 127.439 40.5659H125.511Z" fill="#53CC90"/>
<path d="M176.793 69H157.057V60.7842H160.637V40.5659H157.149V32.4419H176.701C179.7 32.4419 182.355 32.7708 184.665 33.4287C186.99 34.0713 188.811 35.1576 190.127 36.6875C191.458 38.2174 192.123 40.3211 192.123 42.9985C192.123 47.6802 190.853 51.0461 188.314 53.0962C185.774 55.1463 181.964 56.1714 176.885 56.1714C175.585 56.1714 174.445 56.0949 173.466 55.9419V60.7842H176.793V69ZM173.512 40.5659V48.6899H174.452C177.925 48.6899 179.662 47.16 179.662 44.1001C179.662 42.9679 179.279 42.0959 178.514 41.4839C177.749 40.8719 176.724 40.5659 175.439 40.5659H173.512Z" fill="#66C2EF"/>
<path d="M232.688 60.7842V69H212.768V60.7842H216.28V54.0601L206.664 40.5659H204.071V32.4878H223.623V40.5659H221.558L225.735 46.6704L229.017 40.5659H225.689V32.4878H240.308V40.5659H236.177L229.085 52.8208V60.7842H232.688Z" fill="#8081C6"/>
<path d="M25.0117 60.9219H25.5117V60.4219H25.0117V60.9219ZM25.0117 69V69.5H25.5117V69H25.0117ZM6.67529 69H6.17529V69.5H6.67529V69ZM6.67529 60.9219V60.4219H6.17529V60.9219H6.67529ZM10.3472 60.9219V61.4219H10.8472V60.9219H10.3472ZM10.3472 40.5659H10.8472V40.0659H10.3472V40.5659ZM6.67529 40.5659H6.17529V41.0659H6.67529V40.5659ZM6.67529 32.4878L6.67404 31.9878L6.17529 31.989V32.4878H6.67529ZM25.0117 32.4419H25.5117V31.9406L25.0105 31.9419L25.0117 32.4419ZM25.0117 40.5659V41.0659H25.5117V40.5659H25.0117ZM22.0972 40.5659V40.0659H21.5972V40.5659H22.0972ZM22.0972 46.5786H21.5972V47.0786H22.0972V46.5786ZM30.8867 46.5786V47.0786H31.3867V46.5786H30.8867ZM30.8867 40.5659H31.3867V40.0659H30.8867V40.5659ZM27.9722 40.5659H27.4722V41.0659H27.9722V40.5659ZM27.9722 32.4419L27.9734 31.9419L27.4722 31.9406V32.4419H27.9722ZM46.2856 32.4878H46.7856V31.989L46.2869 31.9878L46.2856 32.4878ZM46.2856 40.5659V41.0659H46.7856V40.5659H46.2856ZM42.6367 40.5659V40.0659H42.1367V40.5659H42.6367ZM42.6367 60.9219H42.1367V61.4219H42.6367V60.9219ZM46.2856 60.9219H46.7856V60.4219H46.2856V60.9219ZM46.2856 69V69.5H46.7856V69H46.2856ZM27.9722 69H27.4722V69.5H27.9722V69ZM27.9722 60.9219V60.4219H27.4722V60.9219H27.9722ZM30.8867 60.9219V61.4219H31.3867V60.9219H30.8867ZM30.8867 54.4272H31.3867V53.9272H30.8867V54.4272ZM22.0972 54.4272V53.9272H21.5972V54.4272H22.0972ZM22.0972 60.9219H21.5972V61.4219H22.0972V60.9219ZM24.5117 60.9219V69H25.5117V60.9219H24.5117ZM25.0117 68.5H6.67529V69.5H25.0117V68.5ZM7.17529 69V60.9219H6.17529V69H7.17529ZM6.67529 61.4219H10.3472V60.4219H6.67529V61.4219ZM10.8472 60.9219V40.5659H9.84717V60.9219H10.8472ZM10.3472 40.0659H6.67529V41.0659H10.3472V40.0659ZM7.17529 40.5659V32.4878H6.17529V40.5659H7.17529ZM6.67654 32.9878L25.013 32.9419L25.0105 31.9419L6.67404 31.9878L6.67654 32.9878ZM24.5117 32.4419V40.5659H25.5117V32.4419H24.5117ZM25.0117 40.0659H22.0972V41.0659H25.0117V40.0659ZM21.5972 40.5659V46.5786H22.5972V40.5659H21.5972ZM22.0972 47.0786H30.8867V46.0786H22.0972V47.0786ZM31.3867 46.5786V40.5659H30.3867V46.5786H31.3867ZM30.8867 40.0659H27.9722V41.0659H30.8867V40.0659ZM28.4722 40.5659V32.4419H27.4722V40.5659H28.4722ZM27.9709 32.9419L46.2844 32.9878L46.2869 31.9878L27.9734 31.9419L27.9709 32.9419ZM45.7856 32.4878V40.5659H46.7856V32.4878H45.7856ZM46.2856 40.0659H42.6367V41.0659H46.2856V40.0659ZM42.1367 40.5659V60.9219H43.1367V40.5659H42.1367ZM42.6367 61.4219H46.2856V60.4219H42.6367V61.4219ZM45.7856 60.9219V69H46.7856V60.9219H45.7856ZM46.2856 68.5H27.9722V69.5H46.2856V68.5ZM28.4722 69V60.9219H27.4722V69H28.4722ZM27.9722 61.4219H30.8867V60.4219H27.9722V61.4219ZM31.3867 60.9219V54.4272H30.3867V60.9219H31.3867ZM30.8867 53.9272H22.0972V54.9272H30.8867V53.9272ZM21.5972 54.4272V60.9219H22.5972V54.4272H21.5972ZM22.0972 61.4219H25.0117V60.4219H22.0972V61.4219ZM74.2516 60.9219H74.7516V60.4219H74.2516V60.9219ZM74.2516 69V69.5H74.7516V69H74.2516ZM58.1412 69H57.6412V69.5H58.1412V69ZM58.1412 60.9219V60.4219H57.6412V60.9219H58.1412ZM61.7672 60.9219V61.4219H62.136L62.2449 61.0694L61.7672 60.9219ZM68.0553 40.5659L68.533 40.7135L68.733 40.0659H68.0553V40.5659ZM63.2589 40.5659H62.7589V41.0659H63.2589V40.5659ZM63.2589 32.4878V31.9878H62.7589V32.4878H63.2589ZM86.0016 32.4878L86.4822 32.3501L86.3784 31.9878H86.0016V32.4878ZM94.1485 60.9219L93.6679 61.0596L93.7717 61.4219H94.1485V60.9219ZM97.7516 60.9219H98.2516V60.4219H97.7516V60.9219ZM97.7516 69V69.5H98.2516V69H97.7516ZM77.212 69H76.712V69.5H77.212V69ZM77.212 60.9219V60.4219H76.712V60.9219H77.212ZM80.1954 60.9219V61.4219H80.8376L80.6801 60.7993L80.1954 60.9219ZM79.2086 57.0205L79.6933 56.8979L79.5979 56.5205H79.2086V57.0205ZM70.9239 57.0205V56.5205H70.5391L70.4406 56.8926L70.9239 57.0205ZM69.8912 60.9219L69.4079 60.7939L69.2416 61.4219H69.8912V60.9219ZM78.107 51.4668V51.9668H78.7401L78.5934 51.3509L78.107 51.4668ZM75.4449 40.2905L75.9313 40.1747L75.5002 38.3649L74.966 40.1469L75.4449 40.2905ZM72.0943 51.4668L71.6154 51.3232L71.4225 51.9668H72.0943V51.4668ZM73.7516 60.9219V69H74.7516V60.9219H73.7516ZM74.2516 68.5H58.1412V69.5H74.2516V68.5ZM58.6412 69V60.9219H57.6412V69H58.6412ZM58.1412 61.4219H61.7672V60.4219H58.1412V61.4219ZM62.2449 61.0694L68.533 40.7135L67.5775 40.4183L61.2895 60.7743L62.2449 61.0694ZM68.0553 40.0659H63.2589V41.0659H68.0553V40.0659ZM63.7589 40.5659V32.4878H62.7589V40.5659H63.7589ZM63.2589 32.9878H86.0016V31.9878H63.2589V32.9878ZM85.5209 32.6255L93.6679 61.0596L94.6292 60.7842L86.4822 32.3501L85.5209 32.6255ZM94.1485 61.4219H97.7516V60.4219H94.1485V61.4219ZM97.2516 60.9219V69H98.2516V60.9219H97.2516ZM97.7516 68.5H77.212V69.5H97.7516V68.5ZM77.712 69V60.9219H76.712V69H77.712ZM77.212 61.4219H80.1954V60.4219H77.212V61.4219ZM80.6801 60.7993L79.6933 56.8979L78.7239 57.1431L79.7107 61.0445L80.6801 60.7993ZM79.2086 56.5205H70.9239V57.5205H79.2086V56.5205ZM70.4406 56.8926L69.4079 60.7939L70.3746 61.0498L71.4073 57.1485L70.4406 56.8926ZM69.8912 61.4219H74.2516V60.4219H69.8912V61.4219ZM78.5934 51.3509L75.9313 40.1747L74.9585 40.4064L77.6206 51.5827L78.5934 51.3509ZM74.966 40.1469L71.6154 51.3232L72.5733 51.6104L75.9239 40.4341L74.966 40.1469ZM72.0943 51.9668H78.107V50.9668H72.0943V51.9668ZM128.793 69V69.5H129.293V69H128.793ZM109.056 69H108.556V69.5H109.056V69ZM109.056 60.7842V60.2842H108.556V60.7842H109.056ZM112.636 60.7842V61.2842H113.136V60.7842H112.636ZM112.636 40.5659H113.136V40.0659H112.636V40.5659ZM109.148 40.5659H108.648V41.0659H109.148V40.5659ZM109.148 32.4419V31.9419H108.648V32.4419H109.148ZM136.664 33.4287L136.527 33.9096L136.531 33.9107L136.664 33.4287ZM142.126 36.6875L141.747 37.0135L141.749 37.0157L142.126 36.6875ZM125.465 55.9419L125.542 55.4479L124.965 55.3577V55.9419H125.465ZM125.465 60.7842H124.965V61.2842H125.465V60.7842ZM128.793 60.7842H129.293V60.2842H128.793V60.7842ZM125.511 40.5659V40.0659H125.011V40.5659H125.511ZM125.511 48.6899H125.011V49.1899H125.511V48.6899ZM130.514 41.4839L130.826 41.0935L130.514 41.4839ZM128.793 68.5H109.056V69.5H128.793V68.5ZM109.556 69V60.7842H108.556V69H109.556ZM109.056 61.2842H112.636V60.2842H109.056V61.2842ZM113.136 60.7842V40.5659H112.136V60.7842H113.136ZM112.636 40.0659H109.148V41.0659H112.636V40.0659ZM109.648 40.5659V32.4419H108.648V40.5659H109.648ZM109.148 32.9419H128.701V31.9419H109.148V32.9419ZM128.701 32.9419C131.664 32.9419 134.271 33.2671 136.527 33.9096L136.801 32.9478C134.437 32.2746 131.735 31.9419 128.701 31.9419V32.9419ZM136.531 33.9107C138.78 34.5321 140.508 35.5725 141.747 37.0135L142.505 36.3615C141.113 34.7426 139.2 33.6105 136.797 32.9468L136.531 33.9107ZM141.749 37.0157C142.978 38.4288 143.623 40.4025 143.623 42.9985H144.623C144.623 40.2397 143.936 38.0061 142.503 36.3593L141.749 37.0157ZM143.623 42.9985C143.623 47.5974 142.377 50.7878 139.999 52.7071L140.627 53.4853C143.329 51.3043 144.623 47.7629 144.623 42.9985H143.623ZM139.999 52.7071C137.586 54.6551 133.91 55.6714 128.884 55.6714V56.6714C134.018 56.6714 137.961 55.6375 140.627 53.4853L139.999 52.7071ZM128.884 55.6714C127.602 55.6714 126.489 55.5959 125.542 55.4479L125.388 56.4359C126.399 56.5939 127.566 56.6714 128.884 56.6714V55.6714ZM124.965 55.9419V60.7842H125.965V55.9419H124.965ZM125.465 61.2842H128.793V60.2842H125.465V61.2842ZM128.293 60.7842V69H129.293V60.7842H128.293ZM125.011 40.5659V48.6899H126.011V40.5659H125.011ZM125.511 49.1899H126.452V48.1899H125.511V49.1899ZM126.452 49.1899C128.251 49.1899 129.694 48.795 130.69 47.9176C131.697 47.0296 132.161 45.7247 132.161 44.1001H131.161C131.161 45.5354 130.757 46.5254 130.028 47.1673C129.288 47.8199 128.126 48.1899 126.452 48.1899V49.1899ZM132.161 44.1001C132.161 42.8426 131.729 41.8158 130.826 41.0935L130.202 41.8743C130.829 42.376 131.161 43.0932 131.161 44.1001H132.161ZM130.826 41.0935C129.948 40.3911 128.802 40.0659 127.439 40.0659V41.0659C128.646 41.0659 129.55 41.3527 130.202 41.8743L130.826 41.0935ZM127.439 40.0659H125.511V41.0659H127.439V40.0659ZM176.793 69V69.5H177.293V69H176.793ZM157.057 69H156.557V69.5H157.057V69ZM157.057 60.7842V60.2842H156.557V60.7842H157.057ZM160.637 60.7842V61.2842H161.137V60.7842H160.637ZM160.637 40.5659H161.137V40.0659H160.637V40.5659ZM157.149 40.5659H156.649V41.0659H157.149V40.5659ZM157.149 32.4419V31.9419H156.649V32.4419H157.149ZM184.665 33.4287L184.528 33.9096L184.532 33.9107L184.665 33.4287ZM190.127 36.6875L189.748 37.0135L189.75 37.0157L190.127 36.6875ZM173.466 55.9419L173.543 55.4479L172.966 55.3577V55.9419H173.466ZM173.466 60.7842H172.966V61.2842H173.466V60.7842ZM176.793 60.7842H177.293V60.2842H176.793V60.7842ZM173.512 40.5659V40.0659H173.012V40.5659H173.512ZM173.512 48.6899H173.012V49.1899H173.512V48.6899ZM178.514 41.4839L178.827 41.0935L178.514 41.4839ZM176.793 68.5H157.057V69.5H176.793V68.5ZM157.557 69V60.7842H156.557V69H157.557ZM157.057 61.2842H160.637V60.2842H157.057V61.2842ZM161.137 60.7842V40.5659H160.137V60.7842H161.137ZM160.637 40.0659H157.149V41.0659H160.637V40.0659ZM157.649 40.5659V32.4419H156.649V40.5659H157.649ZM157.149 32.9419H176.701V31.9419H157.149V32.9419ZM176.701 32.9419C179.665 32.9419 182.272 33.2671 184.528 33.9096L184.802 32.9478C182.438 32.2746 179.736 31.9419 176.701 31.9419V32.9419ZM184.532 33.9107C186.781 34.5321 188.508 35.5725 189.748 37.0135L190.506 36.3615C189.114 34.7426 187.2 33.6105 184.798 32.9468L184.532 33.9107ZM189.75 37.0157C190.979 38.4288 191.623 40.4025 191.623 42.9985H192.623C192.623 40.2397 191.937 38.0061 190.504 36.3593L189.75 37.0157ZM191.623 42.9985C191.623 47.5974 190.377 50.7878 188 52.7071L188.628 53.4853C191.33 51.3043 192.623 47.7629 192.623 42.9985H191.623ZM188 52.7071C185.587 54.6551 181.91 55.6714 176.885 55.6714V56.6714C182.019 56.6714 185.962 55.6375 188.628 53.4853L188 52.7071ZM176.885 55.6714C175.603 55.6714 174.49 55.5959 173.543 55.4479L173.388 56.4359C174.4 56.5939 175.566 56.6714 176.885 56.6714V55.6714ZM172.966 55.9419V60.7842H173.966V55.9419H172.966ZM173.466 61.2842H176.793V60.2842H173.466V61.2842ZM176.293 60.7842V69H177.293V60.7842H176.293ZM173.012 40.5659V48.6899H174.012V40.5659H173.012ZM173.512 49.1899H174.452V48.1899H173.512V49.1899ZM174.452 49.1899C176.252 49.1899 177.694 48.795 178.69 47.9176C179.698 47.0296 180.162 45.7247 180.162 44.1001H179.162C179.162 45.5354 178.758 46.5254 178.029 47.1673C177.288 47.8199 176.126 48.1899 174.452 48.1899V49.1899ZM180.162 44.1001C180.162 42.8426 179.73 41.8158 178.827 41.0935L178.202 41.8743C178.829 42.376 179.162 43.0932 179.162 44.1001H180.162ZM178.827 41.0935C177.949 40.3911 176.802 40.0659 175.439 40.0659V41.0659C176.647 41.0659 177.55 41.3527 178.202 41.8743L178.827 41.0935ZM175.439 40.0659H173.512V41.0659H175.439V40.0659ZM232.688 60.7842H233.188V60.2842H232.688V60.7842ZM232.688 69V69.5H233.188V69H232.688ZM212.768 69H212.268V69.5H212.768V69ZM212.768 60.7842V60.2842H212.268V60.7842H212.768ZM216.28 60.7842V61.2842H216.78V60.7842H216.28ZM216.28 54.0601H216.78V53.9001L216.687 53.7699L216.28 54.0601ZM206.664 40.5659L207.071 40.2758L206.922 40.0659H206.664V40.5659ZM204.071 40.5659H203.571V41.0659H204.071V40.5659ZM204.071 32.4878V31.9878H203.571V32.4878H204.071ZM223.623 32.4878H224.123V31.9878H223.623V32.4878ZM223.623 40.5659V41.0659H224.123V40.5659H223.623ZM221.558 40.5659V40.0659H220.61L221.145 40.8483L221.558 40.5659ZM225.735 46.6704L225.322 46.9528L225.786 47.6309L226.175 46.9072L225.735 46.6704ZM229.017 40.5659L229.457 40.8027L229.853 40.0659H229.017V40.5659ZM225.689 40.5659H225.189V41.0659H225.689V40.5659ZM225.689 32.4878V31.9878H225.189V32.4878H225.689ZM240.308 32.4878H240.808V31.9878H240.308V32.4878ZM240.308 40.5659V41.0659H240.808V40.5659H240.308ZM236.177 40.5659V40.0659H235.888L235.744 40.3155L236.177 40.5659ZM229.085 52.8208L228.653 52.5704L228.585 52.6866V52.8208H229.085ZM229.085 60.7842H228.585V61.2842H229.085V60.7842ZM232.188 60.7842V69H233.188V60.7842H232.188ZM232.688 68.5H212.768V69.5H232.688V68.5ZM213.268 69V60.7842H212.268V69H213.268ZM212.768 61.2842H216.28V60.2842H212.768V61.2842ZM216.78 60.7842V54.0601H215.78V60.7842H216.78ZM216.687 53.7699L207.071 40.2758L206.257 40.8561L215.872 54.3502L216.687 53.7699ZM206.664 40.0659H204.071V41.0659H206.664V40.0659ZM204.571 40.5659V32.4878H203.571V40.5659H204.571ZM204.071 32.9878H223.623V31.9878H204.071V32.9878ZM223.123 32.4878V40.5659H224.123V32.4878H223.123ZM223.623 40.0659H221.558V41.0659H223.623V40.0659ZM221.145 40.8483L225.322 46.9528L226.147 46.3881L221.971 40.2836L221.145 40.8483ZM226.175 46.9072L229.457 40.8027L228.576 40.3292L225.294 46.4337L226.175 46.9072ZM229.017 40.0659H225.689V41.0659H229.017V40.0659ZM226.189 40.5659V32.4878H225.189V40.5659H226.189ZM225.689 32.9878H240.308V31.9878H225.689V32.9878ZM239.808 32.4878V40.5659H240.808V32.4878H239.808ZM240.308 40.0659H236.177V41.0659H240.308V40.0659ZM235.744 40.3155L228.653 52.5704L229.518 53.0712L236.609 40.8163L235.744 40.3155ZM228.585 52.8208V60.7842H229.585V52.8208H228.585ZM229.085 61.2842H232.688V60.2842H229.085V61.2842Z" fill="black"/>
</g>
<defs>
<clipPath id="clip0_45_41">
<rect width="304" height="147" fill="white"/>
</clipPath>
</defs>
</svg>
